<?xml version="1.0" standalone="no"?>
<!DOCTYPE svg PUBLIC "-//W3C//DTD SVG 20010904//EN"
 "http://www.w3.org/TR/2001/REC-SVG-20010904/DTD/svg10.dtd">
<svg version="1.0" xmlns="http://www.w3.org/2000/svg"
 width="96.000000pt" height="96.000000pt" viewBox="0 0 96.000000 96.000000"
 preserveAspectRatio="xMidYMid meet">

<g transform="translate(0.000000,96.000000) scale(0.100000,-0.100000)"
fill="white" stroke="none">
<path d="M440 873 c-29 -11 -69 -56 -75 -84 l-6 -28 -117 -3 -117 -3 0 -25 c0
-22 5 -25 38 -28 l37 -3 0 -265 c0 -217 3 -270 15 -294 25 -49 60 -60 185 -60
l111 0 -23 30 c-21 29 -24 30 -109 30 -66 0 -91 4 -103 16 -14 13 -16 53 -16
280 l0 264 220 0 220 0 0 -89 0 -89 30 -4 30 -5 0 93 0 93 38 3 c32 3 37 6 37
28 l0 25 -117 3 -117 3 -6 28 c-13 59 -100 106 -155 84z m80 -73 c32 -32 24
-40 -40 -40 -33 0 -60 4 -60 10 0 17 39 50 60 50 11 0 29 -9 40 -20z"/>
<path d="M385 588 c-3 -8 -4 -88 -3 -178 l3 -165 25 0 25 0 0 175 c0 174 0
175 -23 178 -12 2 -24 -3 -27 -10z"/>
<path d="M527 594 c-4 -4 -7 -38 -7 -76 l0 -69 30 23 c28 21 31 27 28 73 -3
42 -6 50 -23 53 -12 2 -24 0 -28 -4z"/>
<path d="M600 453 c-151 -79 -160 -289 -16 -377 143 -89 322 4 334 172 8 119
-83 221 -206 230 -48 3 -66 -1 -112 -25z m118 -106 l3 -66 67 -3 c52 -2 67 -6
67 -18 0 -12 -15 -16 -67 -18 l-67 -3 -3 -67 c-2 -52 -6 -67 -18 -67 -12 0
-16 15 -18 67 l-3 67 -67 3 c-52 2 -67 6 -67 18 0 12 15 16 68 18 l67 3 0 63
c0 34 3 66 7 70 17 17 28 -6 31 -67z"/>
</g>
</svg>
