<svg width="189" height="155" viewBox="0 0 189 155" fill="none" xmlns="http://www.w3.org/2000/svg">
<path d="M23 76.7843C44.8293 14.6558 99.5 49.2842 93.8121 76.7843M166 76.7843C167.5 32.7843 99.523 30.2459 99.5 76.7843" stroke="white" stroke-width="5"/>
<path d="M23 88C82.4605 170.956 154.698 116.314 166 88" stroke="white" stroke-width="7"/>
<path d="M166.5 77.5C166.5 118.456 134.179 151.5 94.5 151.5C54.8212 151.5 22.5 118.456 22.5 77.5C22.5 36.5441 54.8212 3.5 94.5 3.5C134.179 3.5 166.5 36.5441 166.5 77.5Z" stroke="white" stroke-width="7"/>
<path d="M147.84 29.0733C189.296 18.2648 197.818 62.5242 164.499 79M39.7916 26.5769C4.09281 21.0852 -10.6627 56.0338 22.6562 79" stroke="white" stroke-width="7"/>
<circle cx="57.5" cy="68.5" r="10" stroke="white" stroke-width="5"/>
<circle cx="132.5" cy="68.5" r="10" stroke="white" stroke-width="5"/>
</svg>
